# xmcd
#
# Track frame offsets:
#	150
#	13564
#	25917
#	36145
#	47421
#	59685
#	71301
#	81698
#	92612
#	102870
#	113649
#	124171
#	135954
#	148768
#	160294
#	171744
#	181709
#	193237
#	206564
#	218028
#
# Disc length: 3064 seconds
#
# Revision: 1769172849
# Processed by: cddbd v1.5.2PL0 Copyright (c) Steve Scherf et al.
# Submitted via: EZCDAudioConverter 8.0.6.1
#
DISCID=1d0bf614
DTITLE=Kitty Wells - The Essential Recordings
DYEAR=2011
DGENRE=Country
TTITLE0=Death At The Bar
TTITLE1=Love Or Hate
TTITLE2=Make Up Your Mind
TTITLE3=Make Believe ('til We Can Make It Come True)
TTITLE4=I'll Be All Smiles (Tonight)
TTITLE5=It Wasn't God Who Made Honkey Tonk Angels
TTITLE6=A Wedding Ring Ago
TTITLE7=Divided By Two
TTITLE8=I Heard The Jukebox Playing
TTITLE9=The Things I Might Have Been
TTITLE10=I Don't Want Your Money, I Want Your Time
TTITLE11=Paying For That Back Street Affair
TTITLE12=My Cold Cold Heart Is Melting Now
TTITLE13=Hey Joe
TTITLE14=Crying Steel Guiter Waltz
TTITLE15=Icicles Hanging From Your Heart
TTITLE16=Honkey Tonk Waltz
TTITLE17=I Don't Claim To Be An Angel
TTITLE18=You Said You Could Do Without Me
TTITLE19=I Gave My Wedding Dress Away
EXTD=
EXTT0=
EXTT1=
EXTT2=
EXTT3=
EXTT4=
EXTT5=
EXTT6=
EXTT7=
EXTT8=
EXTT9=
EXTT10=
EXTT11=
EXTT12=
EXTT13=
EXTT14=
EXTT15=
EXTT16=
EXTT17=
EXTT18=
EXTT19=
PLAYORDER=
